<?xml version="1.0" encoding="UTF-8"?>
<svg width="595px" height="205px" viewBox="0 0 595 205" version="1.1" xmlns="http://www.w3.org/2000/svg" xmlns:xlink="http://www.w3.org/1999/xlink">
    <!-- Generator: Sketch 40.3 (33839) - http://www.bohemiancoding.com/sketch -->
    <title>Group 24</title>
    <desc>Created with Sketch.</desc>
    <defs>
        <polygon id="path-1" points="0 228 613 228 613 0 0 0"></polygon>
    </defs>
    <g id="Welcome" stroke="none" stroke-width="1" fill="none" fill-rule="evenodd">
        <g id="Desktop-HD" transform="translate(-429.000000, -75.000000)">
            <g id="Group-24" transform="translate(421.000000, 62.000000)">
                <path d="M12.8584475,96.3009275 L108.770521,213.549679 L238.332805,124.279216 L148.025446,41.012421 L12.8584475,96.3009275 L12.8584475,96.3009275 Z M108.262179,217.124997 L107.488703,216.177155 L8.52857431,95.2037397 L148.585618,37.9140105 L149.206592,38.4884908 L242.579948,124.579897 L108.262179,217.124997 L108.262179,217.124997 Z" id="Fill-1" fill="#006996"></path>
                <path d="M42.6745681,91.7685066 L146.914471,147.360681 L194.280931,36.042917 L106.667781,19.9007162 L42.6745681,91.7685066 Z M148.222204,151.068419 L38.443373,92.5231965 L105.676017,17.0173624 L198.024716,34.0337293 L148.222204,151.068419 Z" id="Fill-3" fill="#B6D037"></path>
                <path d="M165.256726,28.9720297 L196.716086,55.6948245 L220.569261,35.4545974 L194.442504,16.699855 L165.256726,28.9720297 Z M196.716086,59.1805362 L160.241091,28.1994183 L194.784388,13.676117 L224.878203,35.2803616 L196.716086,59.1805362 Z" id="Fill-5" fill="#DC3A54"></path>
                <path d="M123.598143,103.594936 C125.544792,103.594936 127.313023,103.177766 128.903833,102.337452 C130.495639,101.497137 131.7336,100.444753 132.618713,99.1793031 L132.618713,91.8902725 L126.030208,91.8902725 C123.289152,91.8902725 121.209935,92.5304646 119.79555,93.8118445 C118.380168,95.0922288 117.67148,96.6324734 117.67148,98.4276 C117.67148,100.047495 118.195769,101.312945 119.242355,102.225941 C120.287943,103.138936 121.742199,103.594936 123.598143,103.594936 L123.598143,103.594936 Z M134.786639,112.209155 C134.4308,111.412648 134.121808,110.596229 133.856673,109.758901 C133.592535,108.918587 133.384215,108.073294 133.236696,107.21705 C131.704695,108.985294 129.840776,110.412037 127.64494,111.501259 C125.449104,112.589486 122.936303,113.137085 120.104542,113.137085 C115.41883,113.137085 111.695976,111.86367 108.938971,109.314849 C106.181966,106.769015 104.806454,103.30222 104.806454,98.9144646 C104.806454,94.4390934 106.602594,90.9772769 110.200854,88.5349886 C113.796124,86.0897135 119.073904,84.8680716 126.030208,84.8680716 L132.618713,84.8680716 L132.618713,80.1856087 C132.618713,77.888683 131.956872,76.1064996 130.628207,74.8410498 C129.301535,73.5765956 127.340932,72.9433729 124.748391,72.9433729 C123.273204,72.9433729 121.96248,73.1116349 120.81323,73.4521415 C119.662982,73.7886655 118.733017,74.1928926 118.027319,74.6648227 L117.186064,79.7893467 L107.459797,79.7893467 L107.503654,69.1888402 C109.860963,67.5968227 112.566137,66.2586917 115.616186,65.169469 C118.668228,64.0802463 121.991386,63.5336437 125.589646,63.5336437 C131.513319,63.5336437 136.325618,64.9852769 140.02455,67.8845607 C143.723482,70.7858358 145.574443,74.9167179 145.574443,80.2742201 L145.574443,100.019617 C145.574443,100.75539 145.582417,101.448351 145.598365,102.093521 C145.611322,102.741679 145.663153,103.361958 145.750867,103.950377 L149.687025,104.479059 L149.687025,112.209155 L134.786639,112.209155 Z" id="Fill-7" fill="#343433"></path>
                <path d="M176.527952,103.242383 C178.825456,103.242383 180.668443,102.573317 182.05492,101.233195 C183.438406,99.8920769 184.131146,98.1059109 184.131146,95.8657362 L195.805058,95.8657362 L195.939619,96.1325659 C196.056239,100.960391 194.242157,105.002662 190.499369,108.2544 C186.755583,111.509125 182.098777,113.136985 176.527952,113.136985 C169.392234,113.136985 163.894172,110.883867 160.033767,106.377631 C156.171369,101.873387 154.239671,96.0887581 154.239671,89.0197624 L154.239671,87.6945747 C154.239671,80.6574393 156.2232,74.8728105 160.187266,70.3377013 C164.153326,65.8025921 169.804887,63.5335441 177.145936,63.5335441 C181.008334,63.5335441 184.471037,64.1090201 187.537034,65.2579808 C190.60303,66.4069415 193.151715,68.0248454 195.187074,70.1146795 L195.363499,82.8796926 L184.883691,82.8796926 L182.760617,75.4174218 C182.111734,74.8568803 181.317326,74.3929153 180.372409,74.024531 C179.430482,73.6571424 178.352998,73.4729502 177.145936,73.4729502 C173.490861,73.4729502 170.910281,74.7971424 169.407185,77.4475179 C167.904089,80.0978934 167.151544,83.5149066 167.151544,87.6945747 L167.151544,89.0197624 C167.151544,93.2910288 167.844284,96.7289502 169.23076,99.3345223 C170.617237,101.94109 173.047308,103.242383 176.527952,103.242383" id="Fill-9" fill="#343433"></path>
                <path d="M224.239985,103.242383 C226.537489,103.242383 228.380476,102.573317 229.766953,101.233195 C231.150439,99.8920769 231.843179,98.1059109 231.843179,95.8657362 L243.517091,95.8657362 L243.651652,96.1325659 C243.768271,100.960391 241.95419,105.002662 238.211401,108.2544 C234.467616,111.509125 229.810809,113.136985 224.239985,113.136985 C217.104266,113.136985 211.606205,110.883867 207.7458,106.377631 C203.883401,101.873387 201.951704,96.0887581 201.951704,89.0197624 L201.951704,87.6945747 C201.951704,80.6574393 203.935232,74.8728105 207.899299,70.3377013 C211.865359,65.8025921 217.51692,63.5335441 224.857969,63.5335441 C228.720367,63.5335441 232.18307,64.1090201 235.249066,65.2579808 C238.315063,66.4069415 240.863748,68.0248454 242.899107,70.1146795 L243.075531,82.8796926 L232.595723,82.8796926 L230.47265,75.4174218 C229.823767,74.8568803 229.029359,74.3929153 228.084442,74.024531 C227.142515,73.6571424 226.065031,73.4729502 224.857969,73.4729502 C221.202894,73.4729502 218.622313,74.7971424 217.119218,77.4475179 C215.616122,80.0978934 214.863577,83.5149066 214.863577,87.6945747 L214.863577,89.0197624 C214.863577,93.2910288 215.556317,96.7289502 216.942793,99.3345223 C218.32927,101.94109 220.759341,103.242383 224.239985,103.242383" id="Fill-11" fill="#343433"></path>
                <path d="M271.24343,73.472552 C268.855221,73.472552 266.968378,74.3855476 265.584891,76.2105432 C264.198415,78.0365345 263.341212,80.4370061 263.019262,83.4109624 L263.15183,83.631993 L278.982181,83.631993 L278.982181,82.4830323 C278.982181,79.745041 278.340275,77.5586306 277.058457,75.9228052 C275.775643,74.2889712 273.836968,73.472552 271.24343,73.472552 M272.393677,113.137583 C265.496181,113.137583 259.982171,110.928272 255.854638,106.511644 C251.728101,102.094019 249.663836,96.4846218 249.663836,89.6834515 L249.663836,87.915207 C249.663836,80.8213205 251.616465,74.9739668 255.522721,70.3821066 C259.429973,65.7872594 264.667883,63.5052681 271.24343,63.5341415 C277.699366,63.5341415 282.709021,65.4786131 286.278376,69.3655651 C289.842747,73.252517 291.628919,78.5084646 291.628919,85.1334079 L291.628919,92.1546131 L263.064116,92.1546131 L262.975405,92.4224384 C263.209641,95.5726218 264.263204,98.1632594 266.13709,100.195347 C268.008982,102.226438 270.55069,103.241984 273.764205,103.241984 C276.621882,103.241984 278.997132,102.954246 280.881982,102.381757 C282.768826,101.806281 284.833091,100.901251 287.072784,99.6636786 L290.567382,107.61381 C288.591828,109.174962 286.035169,110.487207 282.89342,111.544569 C279.755657,112.605914 276.253085,113.137583 272.393677,113.137583" id="Fill-13" fill="#343433"></path>
                <path d="M336.773528,80.8494969 L328.108798,80.8494969 L326.73827,74.8856541 C325.853158,74.1807459 324.738793,73.591331 323.397171,73.1194009 C322.057541,72.6474707 320.575377,72.4115057 318.955662,72.4115057 C316.684073,72.4115057 314.884943,72.9202742 313.558271,73.9368157 C312.232597,74.9533572 311.569759,76.2257764 311.569759,77.7560646 C311.569759,79.2007284 312.203691,80.4004664 313.470558,81.3572699 C314.737424,82.3140734 317.273151,83.1593659 321.076741,83.8961345 C327.002408,85.0729729 331.395076,86.8053747 334.252753,89.0873659 C337.113419,91.3693572 338.543753,94.5115755 338.543753,98.5150166 C338.543753,102.817148 336.692792,106.32775 332.99386,109.050807 C329.294928,111.775855 324.422824,113.136886 318.379541,113.136886 C314.693567,113.136886 311.310605,112.597252 308.23165,111.52396 C305.150702,110.450667 302.417619,108.910423 300.029411,106.9092 L299.896844,96.1762742 L308.917413,96.1762742 L310.684647,102.401969 C311.451146,103.050126 312.499725,103.530021 313.826397,103.838667 C315.152071,104.147314 316.536554,104.302632 317.981839,104.302632 C320.604283,104.302632 322.602762,103.830702 323.973291,102.889829 C325.343819,101.945969 326.029582,100.664589 326.029582,99.0466847 C326.029582,97.6338812 325.335845,96.4122393 323.950366,95.3807633 C322.563889,94.3512786 320.014208,93.4352961 316.302319,92.6427721 C310.669696,91.4938114 306.417569,89.7922742 303.543945,87.5391563 C300.67032,85.2890253 299.232013,82.2184926 299.232013,78.3315406 C299.232013,74.3280996 300.882627,70.874248 304.184853,67.9729729 C307.48708,65.0736891 312.187743,63.6220559 318.290831,63.6220559 C322.00571,63.6220559 325.520244,64.1248507 328.838418,65.125462 C332.152605,66.127069 334.754117,67.4074533 336.640961,68.9686061 L336.773528,80.8494969 Z" id="Fill-15" fill="#343433"></path>
                <path d="M383.379769,80.8494969 L374.715039,80.8494969 L373.34451,74.8856541 C372.459398,74.1807459 371.345034,73.591331 370.003411,73.1194009 C368.663782,72.6474707 367.181618,72.4115057 365.561902,72.4115057 C363.290313,72.4115057 361.491183,72.9202742 360.164512,73.9368157 C358.838837,74.9533572 358.176,76.2257764 358.176,77.7560646 C358.176,79.2007284 358.809931,80.4004664 360.076798,81.3572699 C361.343665,82.3140734 363.879392,83.1593659 367.682982,83.8961345 C373.608648,85.0729729 378.001317,86.8053747 380.858993,89.0873659 C383.71966,91.3693572 385.149993,94.5115755 385.149993,98.5150166 C385.149993,102.817148 383.299032,106.32775 379.6001,109.050807 C375.901169,111.775855 371.029065,113.136886 364.985782,113.136886 C361.299808,113.136886 357.916845,112.597252 354.837891,111.52396 C351.756943,110.450667 349.02386,108.910423 346.635652,106.9092 L346.503084,96.1762742 L355.523653,96.1762742 L357.290887,102.401969 C358.057387,103.050126 359.105966,103.530021 360.432637,103.838667 C361.758312,104.147314 363.142795,104.302632 364.588079,104.302632 C367.210523,104.302632 369.209003,103.830702 370.579531,102.889829 C371.95006,101.945969 372.635822,100.664589 372.635822,99.0466847 C372.635822,97.6338812 371.942086,96.4122393 370.556606,95.3807633 C369.17013,94.3512786 366.620448,93.4352961 362.908559,92.6427721 C357.275936,91.4938114 353.023809,89.7922742 350.150185,87.5391563 C347.276561,85.2890253 345.838253,82.2184926 345.838253,78.3315406 C345.838253,74.3280996 347.488868,70.874248 350.791094,67.9729729 C354.09332,65.0736891 358.793983,63.6220559 364.897071,63.6220559 C368.611951,63.6220559 372.126484,64.1248507 375.444658,65.125462 C378.758845,66.127069 381.360357,67.4074533 383.247201,68.9686061 L383.379769,80.8494969 Z" id="Fill-17" fill="#343433"></path>
                <mask id="mask-2" fill="white">
                    <use xlink:href="#path-1"></use>
                </mask>
                <g id="Clip-20"></g>
                <path d="M396.77945,52.9776419 L409.691324,52.9776419 L409.691324,43.3060611 L396.77945,43.3060611 L396.77945,52.9776419 Z M390.544792,104.47876 L396.77945,103.154568 L396.77945,73.516559 L389.879961,72.1913712 L389.879961,64.4174672 L409.691324,64.4174672 L409.691324,103.154568 L415.880132,104.47876 L415.880132,112.208856 L390.544792,112.208856 L390.544792,104.47876 Z" id="Fill-19" fill="#343433" mask="url(#mask-2)"></path>
                <path d="M420.479825,68.3488245 L420.479825,64.4180646 L432.377008,64.4180646 L432.862425,72.3233921 C434.393429,69.5256629 436.444737,67.3631476 439.009369,65.8308681 C441.574002,64.3015755 444.624051,63.5339424 448.162506,63.5339424 C451.817581,63.5339424 454.867629,64.4260297 457.315642,66.2072175 C459.760665,67.9884052 461.514942,70.7054882 462.577475,74.3564751 C464.020766,70.9992 466.07606,68.3567895 468.744355,66.4272524 C471.413646,64.4987109 474.663044,63.5339424 478.494543,63.5339424 C483.595899,63.5339424 487.539034,65.2295057 490.323948,68.6136629 C493.109859,71.9998114 494.503312,77.2428157 494.503312,84.3367022 L494.503312,107.705209 L501.7098,108.321506 L501.7098,112.208458 L481.944288,112.208458 L481.944288,108.321506 L489.150776,107.705209 L489.150776,84.2490865 C489.150776,78.3599162 488.112164,74.2011563 486.035938,71.7718114 C483.956722,69.3414707 481.059176,68.1287895 477.345293,68.1287895 C473.21776,68.1287895 470.043117,69.4380472 467.815386,72.0595493 C465.590644,74.6810515 464.212142,78.0233921 463.682868,82.0865712 C463.682868,82.3225362 463.687852,82.5425712 463.7038,82.7476716 C463.718751,82.9547633 463.726725,83.2196017 463.726725,83.5431825 L463.726725,107.749017 L470.933213,108.321506 L470.933213,112.208458 L451.212555,112.208458 L451.212555,108.321506 L458.421036,107.749017 L458.421036,84.2490865 C458.421036,78.4793921 457.367473,74.34851 455.259351,71.8594271 C453.151229,69.373331 450.25468,68.1287895 446.570699,68.1287895 C442.796015,68.1287895 439.811751,69.0776279 437.614919,70.9782917 C435.419083,72.8759686 433.880104,75.4297677 432.994992,78.6406847 L432.994992,107.749017 L440.203473,108.321506 L440.203473,112.208458 L420.479825,112.208458 L420.479825,108.321506 L427.688306,107.749017 L427.688306,68.9243004 L420.479825,68.3488245 Z" id="Fill-21" fill="#343433" mask="url(#mask-2)"></path>
                <path d="M523.862922,108.454224 C527.694422,108.454224 531.071404,107.570101 533.989882,105.803848 C536.907363,104.03859 539.015485,101.756599 540.313251,98.9588699 L540.313251,89.3729135 L529.657018,89.3729135 C524.851696,89.3729135 521.012223,90.3685467 518.136605,92.3548349 C515.262981,94.3431144 513.827664,96.8531057 513.827664,99.8848087 C513.827664,102.446573 514.71776,104.515499 516.500942,106.091586 C518.284124,107.665682 520.740111,108.454224 523.862922,108.454224 L523.862922,108.454224 Z M541.286077,112.208756 C540.933228,110.590852 540.682048,109.190992 540.533532,108.013158 C540.386013,106.83632 540.313251,105.643551 540.313251,104.434852 C538.54502,106.936879 536.185718,109.014765 533.239331,110.663534 C530.289953,112.312302 526.972776,113.136686 523.288796,113.136686 C518.60109,113.136686 514.976914,111.928983 512.412282,109.514573 C509.847649,107.101158 508.565831,103.830503 508.565831,99.7085817 C508.565831,95.2919528 510.465633,91.7893153 514.268227,89.1966865 C518.071817,86.6060489 523.229987,85.3097345 529.744732,85.3097345 L540.313251,85.3097345 L540.313251,78.9934376 C540.313251,75.5784157 539.214835,72.8991668 537.018999,70.9546952 C534.823163,69.0122148 531.749192,68.0404769 527.798083,68.0404769 C525.145737,68.0404769 522.720649,68.4008961 520.524813,69.1217345 C518.328978,69.8445642 516.492968,70.822276 515.021768,72.059848 L514.577218,78.4637607 L510.200498,78.4637607 L510.245352,69.2770533 C512.457135,67.5685467 515.101508,66.183621 518.180462,65.1262585 C521.262407,64.0649135 524.540711,63.5332454 528.021355,63.5332454 C533.296145,63.5332454 537.543288,64.8743633 540.753813,67.5526166 C543.968326,70.2338568 545.575083,74.0770009 545.575083,79.0810533 L545.575083,102.580983 C545.575083,103.55073 545.598009,104.486625 545.641866,105.383691 C545.686719,106.283743 545.779417,107.1599 545.927932,108.013158 L550.704348,108.321804 L550.704348,112.208756 L541.286077,112.208756 Z" id="Fill-22" fill="#343433" mask="url(#mask-2)"></path>
                <path d="M597.219586,88.7113153 C597.219586,82.6459179 596.012524,77.6986166 593.59541,73.8694114 C591.176303,70.0421974 587.640838,68.1285904 582.981041,68.1285904 C579.414677,68.1285904 576.520121,68.973883 574.292389,70.6664594 C572.068644,72.3630183 570.394108,74.5613764 569.27476,77.27149 L569.27476,100.239752 C570.481822,102.861254 572.229121,104.920224 574.513667,106.42363 C576.798213,107.925045 579.650906,108.674756 583.071745,108.674756 C587.697653,108.674756 591.213183,106.937376 593.616342,103.462617 C596.020498,99.9878568 597.219586,95.3800664 597.219586,89.6392454 L597.219586,88.7113153 Z M556.804446,68.3486253 L556.804446,64.4178655 L568.433505,64.4178655 L569.098335,71.8393153 C570.718051,69.1889397 572.79029,67.1429135 575.310069,65.6992454 C577.830844,64.2565729 580.785205,63.5337432 584.175145,63.5337432 C589.925384,63.5337432 594.418724,65.8236996 597.663139,70.4026166 C600.90556,74.9815336 602.528266,81.0857607 602.528266,88.7113153 L602.528266,89.6392454 C602.528266,96.7938655 600.90556,102.497848 597.663139,106.753184 C594.418724,111.008521 589.953293,113.137184 584.263856,113.137184 C580.904815,113.137184 577.963412,112.496992 575.442636,111.215612 C572.921861,109.934232 570.866566,108.117202 569.27476,105.760538 L569.27476,126.078424 L576.481248,126.651909 L576.481248,130.582669 L556.804446,130.582669 L556.804446,126.651909 L564.012927,126.078424 L564.012927,68.9241013 L556.804446,68.3486253 Z" id="Fill-23" fill="#343433" mask="url(#mask-2)"></path>
            </g>
        </g>
    </g>
</svg>