<?xml version="1.0" encoding="utf-8"?>
<!-- Generated by IcoMoon.io -->
<!DOCTYPE svg PUBLIC "-//W3C//DTD SVG 1.1//EN" "http://www.w3.org/Graphics/SVG/1.1/DTD/svg11.dtd">
<svg version="1.1" xmlns="http://www.w3.org/2000/svg" xmlns:xlink="http://www.w3.org/1999/xlink" width="24" height="24" viewBox="0 0 24 24">
<path d="M19.5 9.516c1.359 0 2.484 1.125 2.484 2.484s-1.125 2.484-2.484 2.484c-1.031 0-1.922-0.609-2.297-1.5h-2.906c-0.375 0.891-1.266 1.5-2.297 1.5s-1.922-0.609-2.297-1.5h-2.906c-0.375 0.891-1.266 1.5-2.297 1.5-1.359 0-2.484-1.125-2.484-2.484s1.125-2.484 2.484-2.484c1.031 0 1.922 0.609 2.297 1.5h2.906c0.375-0.891 1.266-1.5 2.297-1.5s1.922 0.609 2.297 1.5h2.906c0.375-0.891 1.266-1.5 2.297-1.5z"></path>
</svg>
