<?xml version="1.0" encoding="utf-8"?>
<!-- Generated by IcoMoon.io -->
<!DOCTYPE svg PUBLIC "-//W3C//DTD SVG 1.1//EN" "http://www.w3.org/Graphics/SVG/1.1/DTD/svg11.dtd">
<svg version="1.1" xmlns="http://www.w3.org/2000/svg" xmlns:xlink="http://www.w3.org/1999/xlink" width="24" height="24" viewBox="0 0 24 24">
<path d="M21 8.016v4.969h-2.016v-4.969c0-1.641-1.359-3-3-3h-4.969v-2.016h4.969c2.766 0 5.016 2.25 5.016 5.016zM3 21v-2.016h2.016v2.016h-2.016zM6.984 21v-2.016h2.016v2.016h-2.016zM11.016 21v-2.016h1.969v2.016h-1.969zM6.984 5.016v-2.016h2.016v2.016h-2.016zM3 5.016v-2.016h2.016v2.016h-2.016zM3 9v-2.016h2.016v2.016h-2.016zM3 17.016v-2.016h2.016v2.016h-2.016zM3 12.984v-1.969h2.016v1.969h-2.016zM18.984 17.016v-2.016h2.016v2.016h-2.016zM18.984 18.984h2.016v2.016h-2.016v-2.016z"></path>
</svg>
