<?xml version="1.0" encoding="UTF-8" standalone="no"?>
<!-- Generator: Adobe Illustrator 20.1.0, SVG Export Plug-In . SVG Version: 6.00 Build 0)  -->

<svg
   xmlns:dc="http://purl.org/dc/elements/1.1/"
   xmlns:cc="http://creativecommons.org/ns#"
   xmlns:rdf="http://www.w3.org/1999/02/22-rdf-syntax-ns#"
   xmlns:svg="http://www.w3.org/2000/svg"
   xmlns="http://www.w3.org/2000/svg"
   xmlns:sodipodi="http://sodipodi.sourceforge.net/DTD/sodipodi-0.dtd"
   xmlns:inkscape="http://www.inkscape.org/namespaces/inkscape"
   version="1.1"
   id="Calque_1"
   x="0px"
   y="0px"
   viewBox="0 0 480 62"
   style="enable-background:new 0 0 480 62;"
   xml:space="preserve"
   inkscape:version="0.91 r13725"
   sodipodi:docname="makinacorpus.svg"><metadata
     id="metadata37"><rdf:RDF><cc:Work
         rdf:about=""><dc:format>image/svg+xml</dc:format><dc:type
           rdf:resource="http://purl.org/dc/dcmitype/StillImage" /></cc:Work></rdf:RDF></metadata><defs
     id="defs35" /><sodipodi:namedview
     pagecolor="#ffffff"
     bordercolor="#666666"
     borderopacity="1"
     objecttolerance="10"
     gridtolerance="10"
     guidetolerance="10"
     inkscape:pageopacity="0"
     inkscape:pageshadow="2"
     inkscape:window-width="1920"
     inkscape:window-height="1026"
     id="namedview33"
     showgrid="false"
     inkscape:zoom="0.77083333"
     inkscape:cx="79.783784"
     inkscape:cy="31"
     inkscape:window-x="0"
     inkscape:window-y="27"
     inkscape:window-maximized="1"
     inkscape:current-layer="Calque_1" /><style
     type="text/css"
     id="style3">
	.st0{fill:#FFFFFF;}
	.st1{fill:#b2b62e;}
</style><path
     class="st1"
     d="M57.4,47.5c-2-1.6-4-3.3-6-4.9c-0.8-0.7-0.9-0.8-0.3-1.7c1.2-2.1,2-4.3,2.5-6.6c0.8-3.6,0.7-7.1-0.5-10.6  c-0.4-1.2-1-2.2-1.6-3.3c-0.2-0.3-0.3-0.6,0-0.9c0.9-1,1.8-2,2.8-2.9c1.4-1.5,2.9-2.9,4.2-4.4c1.5-1.7,1.1-3.7-0.8-4.8  C57.2,7,56.6,6.7,56,6.4c-1.5-0.8-3-0.7-4.4-0.1c-1.2,0.5-2,1.3-2.9,2.3l-5,4.8c-0.3,0.2-0.4,0.2-0.7,0.2c-0.3,0-0.6-0.1-1-0.1  c-12.5-2-19.5,5.3-19.5,5.3c-0.3,0.3-0.6,0.3-0.9,0c-0.9-0.7-1.8-1.3-2.6-2c-1.4-1.1-2.4-1.3-3.9-0.4c-1,0.6-1.5,1.5-2.2,2.3  c-0.4,0.4-0.7,0.9-1,1.3c-0.8,1.3-0.7,2.6,0.4,3.7c0.9,0.9,1.8,1.8,2.8,2.7c0.4,0.3,0.4,0.6,0.2,1.1c-0.3,0.6-0.6,1.1-0.8,1.7  c-2.2,5-2.8,10.1-1,15.4c0.3,0.8,0.1,1.2-0.4,1.8c-1.4,1.5-2.9,2.9-4.1,4.5c-1.1,1.4-1.1,3.1-0.1,4.6c0.4,0.5,0.8,1,1.2,1.5  c1.1,1.3,2.9,1.3,4.1,0.2c1.3-1.2,2.5-2.5,3.8-3.7c1.5-1.4,1-1.4,2.9-0.4c3.1,1.6,6.4,2.1,9.9,1.8c3.7-0.3,7-1.6,10.2-3.4  c0.9-0.5,1-0.5,1.8,0.2l1.3,1.2c1.3,1.2,2.6,2.4,3.9,3.5c1.8,1.5,4.5,1.6,6.4,0.3c1.3-0.9,2.4-2,3.5-3.1  C59.5,51.8,59.5,49.2,57.4,47.5z M39.6,41.4c-4.7,4.8-12.9,6.6-17.3,1.9c-4.5-4.9-2.9-11.2,0.4-15.7s11.6-9.3,17.9-4.4  C46.6,27.8,44.3,36.5,39.6,41.4z"
     id="path5" /><g
     id="g7"
     style="fill:#000000"><path
       class="st0"
       d="M88.6,13.1c0.5,0.5,0.9,1.1,1.2,1.9l7.9,27.3l8-27.3c0.2-0.8,0.6-1.4,1.1-1.9c0.5-0.5,1.2-0.7,2.1-0.7   c0.9,0,1.6,0.2,2.2,0.7c0.6,0.5,1,1.2,1.2,2l5.6,33.9l-4.4,0.8L108.9,18l-9,30.3h-4.4L86.6,18L82.1,48c-0.1,0.6-0.3,1.1-0.7,1.5   C81,49.8,80.5,50,79.8,50c-0.6,0-1.1-0.2-1.5-0.6c-0.4-0.4-0.6-0.9-0.6-1.5c0-0.3,0-0.6,0-0.8l5.4-32c0.2-0.9,0.6-1.5,1.2-2   c0.6-0.5,1.4-0.7,2.2-0.7S88.1,12.7,88.6,13.1z"
       id="path9"
       style="fill:#000000" /><path
       class="st0"
       d="M137.4,13.1c0.5,0.5,0.9,1.2,1.2,2l12.8,33.7l-4.4,1.3l-3.2-8.4h-17l-2.6,6.9c-0.2,0.4-0.4,0.8-0.8,1.1   s-0.8,0.4-1.3,0.4c-0.6,0-1.1-0.2-1.5-0.6c-0.4-0.4-0.6-0.9-0.6-1.5c0-0.4,0.1-0.8,0.3-1.2l11.8-31.6c0.3-0.7,0.6-1.4,1.1-1.9   c0.5-0.6,1.1-0.8,2-0.8C136.2,12.4,136.9,12.7,137.4,13.1z M142.5,37.8l-7.2-20.1l-7.3,20.1H142.5z"
       id="path11"
       style="fill:#000000" /><path
       class="st0"
       d="M154.4,14.6c0-0.6,0.2-1.1,0.6-1.5c0.4-0.4,0.9-0.7,1.5-0.7c0.6,0,1.1,0.2,1.6,0.6c0.4,0.4,0.7,0.9,0.7,1.6   v13.8l16.9-15.9l3.2,2.9l-15.9,14.8l16.6,16.2c0.5,0.5,0.8,1.1,0.8,1.7c0,0.6-0.2,1.1-0.6,1.4c-0.4,0.4-0.9,0.6-1.4,0.6   c-0.7,0-1.3-0.3-1.8-0.8L158.8,32v17.6h-4.4V14.6z"
       id="path13"
       style="fill:#000000" /><path
       class="st0"
       d="M184.3,14.7c0-0.6,0.2-1.1,0.7-1.6c0.4-0.4,1-0.7,1.6-0.7c0.6,0,1.1,0.2,1.5,0.7c0.4,0.4,0.6,1,0.6,1.6v34.9   h-4.4V14.7z"
       id="path15"
       style="fill:#000000" /><path
       class="st0"
       d="M196.6,14.6c0-0.6,0.2-1.1,0.7-1.6c0.4-0.4,1-0.7,1.6-0.7c0.8,0,1.4,0.3,1.8,1l19.8,28.7l0-27.4   c0-0.6,0.2-1.1,0.6-1.6c0.4-0.5,0.9-0.7,1.5-0.7c0.6,0,1.2,0.2,1.6,0.7c0.4,0.5,0.6,1,0.6,1.6v33.3c0,0.6-0.2,1.1-0.6,1.6   c-0.4,0.4-0.9,0.6-1.6,0.6c-0.8,0-1.4-0.3-1.8-1L201,20.4v29.2l-4.4-0.1V14.6z"
       id="path17"
       style="fill:#000000" /><path
       class="st0"
       d="M246.3,13.1c0.5,0.5,0.9,1.2,1.2,2l12.8,33.7l-4.4,1.3l-3.2-8.4h-17l-2.6,6.9c-0.2,0.4-0.4,0.8-0.8,1.1   s-0.8,0.4-1.3,0.4c-0.6,0-1.1-0.2-1.5-0.6c-0.4-0.4-0.6-0.9-0.6-1.5c0-0.4,0.1-0.8,0.3-1.2L241,15.2c0.3-0.7,0.6-1.4,1.1-1.9   c0.5-0.6,1.1-0.8,2-0.8C245.1,12.4,245.9,12.7,246.3,13.1z M251.4,37.8l-7.2-20.1L237,37.8H251.4z"
       id="path19"
       style="fill:#000000" /><path
       class="st0"
       d="M299.4,45.2c-0.5,0.7-1,1.3-1.6,1.8c-0.6,0.6-1.4,1.1-2.2,1.4c-0.8,0.4-1.7,0.7-2.5,0.9s-1.7,0.4-2.6,0.5   S288.8,50,288,50c-3.1,0-5.9-0.7-8.4-2c-2.5-1.3-4.5-3.2-6.1-5.6v0c-1.1-1.6-1.9-3.4-2.6-5.3c-0.6-1.9-0.9-3.9-0.9-5.9   c0-2.4,0.4-4.7,1.1-6.8c0.8-2.2,1.8-4.1,3.2-5.8c1.4-1.7,3-3.1,5-4.2c1.9-1.1,4.1-1.8,6.5-2h1.1c1,0,2,0.1,3.1,0.4   c1.1,0.2,2.2,0.6,3.3,1c1.1,0.4,2.1,0.9,3.1,1.4c1,0.5,1.8,1.1,2.5,1.7c0.2,0.2,0.4,0.4,0.5,0.6c0.1,0.2,0.1,0.5-0.1,0.7l-2.6,5.4   c-0.2,0.3-0.6,0.5-1,0.6c-0.4,0.1-0.9,0-1.3-0.2c-1-0.8-2-1.5-3-2c-1-0.5-2.2-0.8-3.3-0.8c-0.3,0-0.7,0.1-1.2,0.2   c-1.1,0.2-2,0.6-2.8,1.2c-0.8,0.6-1.5,1.3-2.1,2.2c-0.6,0.9-1,1.8-1.3,2.9c-0.3,1.1-0.4,2.2-0.4,3.4c0,1.3,0.1,2.5,0.4,3.7   c0.3,1.2,0.7,2.2,1.3,3.1c0.6,0.9,1.3,1.6,2.2,2.2c0.9,0.5,1.9,0.8,3.1,0.8c0.9,0,1.7-0.1,2.5-0.4c0.8-0.3,1.5-0.6,2.1-0.9   c0.5-0.3,1.1-0.5,1.6-0.7s1.1-0.3,1.7-0.3c1.3,0,2.4,0.4,3.3,1.2c0.9,0.8,1.4,1.9,1.4,3.1C300.1,43.8,299.9,44.5,299.4,45.2z"
       id="path21"
       style="fill:#000000" /><path
       class="st0"
       d="M335.2,38.4c-0.9,2.3-2.1,4.3-3.7,6c-1.6,1.7-3.4,3.1-5.6,4.1c-2.2,1-4.6,1.5-7.2,1.5c-2.6,0-5-0.5-7.2-1.5   c-2.2-1-4.1-2.4-5.6-4.1c-1.6-1.7-2.8-3.7-3.7-6c-0.9-2.3-1.3-4.7-1.3-7.2c0-2.6,0.4-5,1.3-7.3c0.9-2.3,2.1-4.3,3.7-6   c1.6-1.7,3.4-3.1,5.6-4.1c2.2-1,4.6-1.5,7.2-1.5c2.6,0,5,0.5,7.2,1.5c2.2,1,4.1,2.4,5.6,4.1c1.6,1.7,2.8,3.7,3.7,6s1.3,4.7,1.3,7.2   C336.5,33.7,336.1,36.1,335.2,38.4z M325.4,27.7c-0.3-1.2-0.7-2.4-1.3-3.3c-0.6-1-1.3-1.8-2.2-2.3s-2-0.9-3.3-0.9   c-1.2,0-2.3,0.3-3.2,0.9s-1.6,1.4-2.2,2.3c-0.6,1-1,2-1.3,3.2c-0.3,1.2-0.4,2.4-0.4,3.6c0,1.2,0.1,2.4,0.4,3.6   c0.3,1.2,0.7,2.3,1.3,3.2c0.6,1,1.3,1.8,2.2,2.3c0.9,0.6,1.9,0.9,3.2,0.9c1.2,0,2.2-0.3,3.1-0.8c0.9-0.6,1.7-1.3,2.3-2.2   c0.6-0.9,1.1-2,1.4-3.2c0.3-1.2,0.5-2.4,0.5-3.6C325.9,30.2,325.7,28.9,325.4,27.7z"
       id="path23"
       style="fill:#000000" /><path
       class="st0"
       d="M362.7,50.8c-0.3,0.1-0.7,0.2-1.1,0.2c-0.4,0-0.7-0.2-0.9-0.4l-9.1-12.1v6.7c0,0.7-0.1,1.3-0.4,1.9   c-0.3,0.6-0.6,1.1-1.1,1.5c-0.5,0.4-1,0.8-1.6,1c-0.6,0.3-1.3,0.4-2,0.4c-0.7,0-1.4-0.1-2-0.4c-0.6-0.3-1.2-0.6-1.6-1.1   c-0.5-0.4-0.9-1-1.1-1.6c-0.3-0.6-0.4-1.2-0.4-1.9V13.8c0-0.3,0.2-0.6,0.5-0.8c0.3-0.2,0.7-0.3,1.2-0.2c0.2,0,0.4,0,0.8,0   c0.3,0,0.7,0,1.2,0c0.5,0,1,0,1.5,0c0.5,0,1.1,0,1.7,0c0.9,0,1.8-0.1,2.8-0.1c0.9,0,1.7,0,2.4,0c0.5,0,1,0,1.4,0   c0.4,0,0.6,0,0.8,0.1c1.7,0.3,3.3,0.7,4.8,1.3c1.5,0.6,2.8,1.4,3.9,2.3c1.1,1,2,2.2,2.6,3.6c0.6,1.4,1,3,1,4.9   c0,1.3-0.2,2.5-0.6,3.5c-0.4,1-0.9,2-1.6,2.8c-0.7,0.8-1.5,1.5-2.4,2.1c-0.9,0.6-1.9,1-3,1.4l8.5,10.6c0.3,0.3,0.4,0.6,0.4,0.8   s-0.3,0.5-0.7,0.7L362.7,50.8z M356.9,22.5c-0.5-0.6-1.1-0.9-1.7-0.9h-3.6v6.1h3.8c0.6,0,1.1-0.3,1.6-0.9c0.4-0.6,0.7-1.3,0.7-2.1   C357.7,23.9,357.4,23.2,356.9,22.5z"
       id="path25"
       style="fill:#000000" /><path
       class="st0"
       d="M400.3,30.4c-0.6,1.5-1.5,2.8-2.6,3.9s-2.4,1.9-3.9,2.6c-1.5,0.6-3.1,1-4.8,1.2h0c-0.4,0.1-1.1,0.1-2.1,0.1   c-1,0-1.9,0-2.7,0v0.2c0,0.7,0,1.5,0,2.4c0,0.9-0.1,1.8-0.1,2.8c-0.1,0.9-0.2,1.8-0.3,2.5c-0.1,0.8-0.3,1.3-0.6,1.7   c-0.4,0.6-0.9,1.1-1.6,1.6c-0.6,0.5-1.5,0.7-2.5,0.7c-0.7,0-1.4-0.1-2-0.4c-0.6-0.3-1.2-0.6-1.6-1.1c-0.5-0.5-0.8-1-1.1-1.6   c-0.3-0.6-0.4-1.2-0.4-1.9V13.9c0-0.3,0.1-0.5,0.4-0.7c0.3-0.2,0.6-0.3,1-0.3h7.5c1.5,0,3,0.1,4.5,0.2c1.5,0.2,2.9,0.4,4.3,0.7   v-0.1c2.3,0.5,4.4,1.7,6.1,3.3c1.7,1.7,2.7,3.8,3.1,6.3c0.1,0.6,0.2,1.3,0.2,2.1C401.2,27.3,400.9,28.9,400.3,30.4z M390.2,22.8   c-0.6-0.7-1.4-1.1-2.2-1.1h-3.6v7.6h3.6c0.9,0,1.6-0.4,2.2-1.1c0.6-0.7,0.9-1.6,0.9-2.7C391.1,24.4,390.8,23.5,390.2,22.8z"
       id="path27"
       style="fill:#000000" /><path
       class="st0"
       d="M436.2,41.1c-0.8,1.9-1.9,3.5-3.4,4.8c-1.4,1.3-3.2,2.3-5.1,3c-2,0.7-4.1,1-6.4,1s-4.5-0.4-6.4-1   c-2-0.7-3.7-1.7-5.1-3s-2.6-2.9-3.4-4.8c-0.8-1.9-1.2-4-1.2-6.5V13.8c0-0.3,0.1-0.5,0.4-0.7c0.3-0.2,0.7-0.3,1.1-0.3h7.4   c0.4,0,0.8,0.1,1,0.3c0.3,0.2,0.4,0.5,0.4,0.7v21c0,2,0.5,3.6,1.6,4.8c1.1,1.2,2.5,1.8,4.2,1.8s3.1-0.6,4.2-1.8   c1.1-1.2,1.6-2.8,1.6-4.8V17.3c0-0.7,0.1-1.3,0.4-1.9c0.3-0.6,0.6-1.1,1.1-1.6c0.5-0.5,1-0.8,1.6-1.1c0.6-0.3,1.3-0.4,2-0.4   s1.4,0.1,2,0.4c0.6,0.3,1.2,0.6,1.7,1.1c0.5,0.5,0.9,1,1.1,1.6c0.3,0.6,0.4,1.2,0.4,1.9v17.3C437.5,37.1,437,39.2,436.2,41.1z"
       id="path29"
       style="fill:#000000" /><path
       class="st0"
       d="M460.3,27.4c1.5,0.6,2.8,1.3,4.1,2.1c1.2,0.9,2.2,1.9,3,3.2c0.8,1.3,1.2,2.9,1.2,4.7c0,1.3-0.2,2.5-0.7,3.7   c-0.4,1.2-1,2.3-1.8,3.4c-1.4,1.9-3,3.3-5,4.1c-2,0.9-4.1,1.3-6.4,1.3c-0.9,0-1.9-0.1-3-0.3c-1.2-0.2-2.3-0.5-3.6-0.8   c-1.2-0.3-2.4-0.7-3.5-1.1c-1.1-0.4-2.1-0.8-2.8-1.2c-0.3-0.1-0.5-0.2-0.7-0.5s-0.2-0.5-0.2-0.7c0.1-0.9,0.3-1.6,0.5-2.2   c0.2-0.6,0.4-1.2,0.6-1.8c0.1-0.3,0.1-0.5,0.2-0.7c0.1-0.2,0.1-0.4,0.2-0.5l-0.1,0.1c0.1-0.1,0.1-0.3,0.2-0.5   c0.1-0.2,0.1-0.4,0.2-0.6c0-0.1,0-0.2,0.1-0.3V39c0-0.1,0-0.1,0-0.2c0-0.4,0.2-0.7,0.6-0.9c0.4-0.2,0.9-0.2,1.5-0.1   c0.2,0.1,0.5,0.2,0.9,0.3c0.4,0.2,0.8,0.3,1.3,0.5c0.5,0.2,0.9,0.4,1.4,0.5c0.5,0.2,0.8,0.3,1.1,0.4c1,0.4,1.9,0.7,2.8,1   c0.9,0.3,1.7,0.4,2.5,0.4c0.4,0,0.8-0.1,1.2-0.3c0.4-0.2,0.7-0.4,1-0.7c0.3-0.3,0.6-0.6,0.7-1c0.2-0.4,0.3-0.9,0.3-1.3   c0-0.3-0.1-0.6-0.3-0.8s-0.5-0.5-0.8-0.7c-0.3-0.2-0.6-0.4-0.9-0.5c-0.3-0.1-0.6-0.3-0.8-0.4v0.1c-0.8-0.4-1.6-0.7-2.4-1   c-1.3-0.4-2.6-0.9-3.8-1.4c-1.3-0.5-2.4-1.2-3.4-1.9c-1-0.8-1.8-1.8-2.5-2.9c-0.6-1.2-0.9-2.6-0.9-4.3c0-1.8,0.4-3.5,1.2-4.9   c0.8-1.4,1.8-2.7,3.1-3.6c1.3-1,2.7-1.7,4.3-2.2c1.6-0.5,3.2-0.8,4.9-0.8c0.8,0,1.9,0.1,3.1,0.3c1.2,0.2,2.4,0.6,3.5,1.1   c1.1,0.5,2.1,1.2,2.9,2c0.8,0.8,1.2,1.8,1.2,3c0,1.2-0.4,2.2-1.3,3s-1.9,1.3-3.2,1.3c-0.7,0-1.4-0.1-1.9-0.3   c-0.6-0.2-1.2-0.4-1.7-0.7c-0.6-0.2-1.2-0.5-1.8-0.7c-0.6-0.2-1.2-0.3-1.9-0.3c-0.4,0-0.9,0.2-1.4,0.5c-0.5,0.3-0.7,0.8-0.7,1.5   c0,0.4,0.1,0.7,0.3,1c0.2,0.3,0.4,0.5,0.7,0.7c0.3,0.2,0.6,0.4,1,0.5c0.4,0.1,0.7,0.3,1,0.4c0.2,0.1,0.4,0.2,0.6,0.2l-0.2-0.1   l0.2,0c0,0,0,0.1,0,0.1C457.4,26.4,458.8,26.9,460.3,27.4z"
       id="path31"
       style="fill:#000000" /></g></svg>